<?xml version="1.0" encoding="utf-8"?>
<!-- Generator: Adobe Illustrator 25.4.1, SVG Export Plug-In . SVG Version: 6.00 Build 0)  -->
<svg version="1.1" id="Layer_1" xmlns="http://www.w3.org/2000/svg" xmlns:xlink="http://www.w3.org/1999/xlink" x="0px" y="0px"
	 viewBox="0 0 595.3 841.9" style="enable-background:new 0 0 595.3 841.9;" xml:space="preserve">
<style type="text/css">
	.st0{fill-rule:evenodd;clip-rule:evenodd;fill:#676766;}
	.st1{fill-rule:evenodd;clip-rule:evenodd;fill:#0674C0;}
	.st2{fill:#0674C0;}
</style>
<g>
	<path class="st0" d="M236.3,602l4-16.2l-8.3,0.2L236.3,602z M354.7,598.5c0,0.3,0,0.5-0.1,0.7c0,0.2,0,0.4-0.1,0.5
		c-0.1,0.1-0.1,0.2-0.1,0.3c-0.1,0.1-0.1,0.1-0.2,0.3c-0.1,0.1-0.4,0.3-0.7,0.4c-0.3,0.2-0.7,0.4-1,0.5c-0.4,0.1-0.9,0.2-1.3,0.3
		c-0.4,0.1-0.9,0.1-1.4,0.1c-1.1,0-2.1-0.1-2.9-0.5c-0.9-0.4-1.6-0.9-2.2-1.5c-0.6-0.7-1-1.5-1.3-2.5c-0.3-1-0.4-2.1-0.4-3.3
		c0-1.4,0.2-2.7,0.5-3.7c0.4-1,0.9-1.9,1.5-2.6c0.7-0.7,1.4-1.1,2.2-1.5c0.9-0.3,1.9-0.5,2.9-0.5c0.4,0,0.9,0.1,1.2,0.1
		c0.4,0.1,0.8,0.2,1.2,0.3c0.3,0.1,0.7,0.3,0.9,0.4c0.3,0.2,0.5,0.3,0.6,0.4c0.1,0.1,0.2,0.2,0.2,0.3c0.1,0.1,0.1,0.2,0.1,0.3
		s0.1,0.3,0.1,0.5c0,0.2,0,0.4,0,0.7c0,0.7-0.1,1.1-0.1,1.3c-0.1,0.2-0.2,0.4-0.4,0.4c-0.2,0-0.3-0.1-0.6-0.3
		c-0.2-0.1-0.4-0.3-0.7-0.5c-0.3-0.2-0.7-0.3-1-0.5c-0.4-0.1-0.9-0.2-1.4-0.2c-1,0-1.8,0.4-2.4,1.2c-0.5,0.9-0.9,2-0.9,3.5
		c0,0.7,0.1,1.4,0.2,2c0.1,0.6,0.4,1.1,0.7,1.4c0.2,0.4,0.6,0.7,1,0.9c0.3,0.2,0.9,0.3,1.4,0.3c0.6,0,1.1-0.1,1.4-0.2
		c0.4-0.1,0.7-0.4,1-0.5c0.3-0.3,0.6-0.4,0.8-0.6c0.2-0.1,0.3-0.2,0.5-0.2c0.1,0,0.2,0.1,0.2,0.1c0.1,0.1,0.1,0.1,0.1,0.3
		c0.1,0.1,0.1,0.3,0.1,0.5C354.7,597.8,354.7,598.1,354.7,598.5L354.7,598.5z M339.9,600.7c0,0.1-0.1,0.2-0.1,0.3
		c-0.1,0.1-0.1,0.1-0.3,0.2c-0.1,0.1-0.3,0.1-0.5,0.1c-0.2,0.1-0.5,0.1-0.8,0.1c-0.4,0-0.7,0-0.9-0.1c-0.2,0-0.4-0.1-0.5-0.1
		c-0.1-0.1-0.3-0.1-0.3-0.2c-0.1-0.1-0.1-0.2-0.1-0.3V599c-0.8,0.8-1.6,1.5-2.4,1.9c-0.8,0.4-1.7,0.7-2.5,0.7c-1,0-1.8-0.1-2.4-0.4
		c-0.7-0.4-1.2-0.8-1.7-1.3c-0.3-0.6-0.7-1.2-0.9-1.9c-0.1-0.7-0.3-1.7-0.3-2.7v-8.8c0-0.1,0-0.2,0.1-0.2c0.1-0.1,0.1-0.1,0.3-0.3
		c0.1-0.1,0.4-0.1,0.7-0.1c0.3-0.1,0.6-0.1,1-0.1s0.7,0,1,0.1c0.3,0,0.5,0.1,0.7,0.1c0.1,0.1,0.3,0.1,0.4,0.3
		c0.1,0.1,0.1,0.1,0.1,0.2v8.1c0,0.7,0.1,1.3,0.1,1.7c0.1,0.4,0.3,0.7,0.4,1c0.2,0.3,0.4,0.5,0.7,0.7c0.3,0.1,0.7,0.2,1.1,0.2
		c0.5,0,1-0.1,1.6-0.5c0.5-0.4,1.1-0.9,1.7-1.7v-9.5c0-0.1,0-0.2,0.1-0.2c0.1-0.1,0.1-0.1,0.3-0.3c0.1-0.1,0.4-0.1,0.7-0.1
		c0.3-0.1,0.6-0.1,1-0.1s0.7,0,1,0.1c0.2,0,0.4,0.1,0.6,0.1c0.1,0.1,0.3,0.1,0.4,0.3c0.1,0.1,0.1,0.1,0.1,0.2L339.9,600.7
		L339.9,600.7z M323.4,595c0,1.1-0.2,2-0.7,2.9c-0.4,0.9-0.9,1.5-1.7,2c-0.7,0.6-1.5,1-2.4,1.3c-0.9,0.3-1.9,0.4-2.9,0.4
		c-0.7,0-1.4-0.1-2-0.1c-0.7-0.1-1.1-0.3-1.6-0.4c-0.5-0.1-0.9-0.4-1.2-0.6c-0.3-0.2-0.5-0.3-0.7-0.5c-0.1-0.1-0.2-0.4-0.3-0.6
		c-0.1-0.3-0.1-0.7-0.1-1.1c0-0.4,0-0.7,0-0.9c0.1-0.2,0.1-0.3,0.1-0.5c0.1-0.1,0.1-0.2,0.2-0.3c0.1-0.1,0.2-0.1,0.3-0.1
		c0.1,0,0.3,0.1,0.7,0.3c0.3,0.1,0.7,0.4,1.1,0.6c0.4,0.2,0.9,0.4,1.5,0.6c0.6,0.2,1.2,0.3,2.1,0.3c0.5,0,1-0.1,1.4-0.1
		c0.3-0.1,0.7-0.3,1-0.5c0.3-0.3,0.5-0.5,0.7-0.9c0.1-0.4,0.2-0.7,0.2-1.1c0-0.5-0.1-0.9-0.3-1.2c-0.3-0.4-0.6-0.7-1-0.9
		c-0.4-0.3-0.9-0.5-1.4-0.7c-0.5-0.2-1.1-0.5-1.6-0.7c-0.6-0.2-1.1-0.5-1.7-0.9c-0.5-0.3-1-0.7-1.4-1.1c-0.4-0.4-0.7-1-1-1.6
		c-0.3-0.6-0.4-1.4-0.4-2.2c0-1,0.2-1.9,0.5-2.7c0.4-0.8,0.9-1.4,1.5-1.9c0.7-0.5,1.4-0.9,2.2-1.1c0.9-0.3,1.8-0.4,2.7-0.4
		c0.5,0,1,0.1,1.4,0.1c0.5,0.1,0.9,0.2,1.4,0.3c0.4,0.1,0.9,0.3,1.1,0.4c0.4,0.2,0.6,0.3,0.7,0.4c0.1,0.1,0.2,0.2,0.2,0.3
		c0.1,0.1,0.1,0.2,0.1,0.3c0.1,0.1,0.1,0.3,0.1,0.5c0.1,0.2,0.1,0.4,0.1,0.7c0,0.3,0,0.6-0.1,0.8c0,0.3-0.1,0.4-0.1,0.5
		c-0.1,0.1-0.1,0.3-0.2,0.3c-0.1,0.1-0.1,0.1-0.3,0.1c-0.1,0-0.3-0.1-0.6-0.2c-0.2-0.1-0.6-0.4-0.9-0.5c-0.4-0.2-0.9-0.4-1.3-0.5
		c-0.5-0.1-1-0.3-1.6-0.3c-0.5,0-0.9,0.1-1.2,0.2c-0.3,0.1-0.7,0.2-0.8,0.4c-0.3,0.2-0.4,0.4-0.5,0.7c-0.1,0.3-0.2,0.6-0.2,0.9
		c0,0.4,0.1,0.9,0.4,1.1c0.3,0.3,0.6,0.7,1,0.9c0.4,0.2,0.9,0.5,1.4,0.7c0.5,0.2,1.1,0.5,1.6,0.7c0.6,0.3,1.1,0.5,1.7,0.9
		c0.5,0.4,1,0.7,1.4,1.1c0.4,0.4,0.8,1,1,1.6C323.2,593.5,323.4,594.2,323.4,595L323.4,595z M296.2,592c0-1.1-0.2-2-0.7-2.7
		c-0.5-0.7-1.3-1-2.3-1c-0.5,0-0.9,0.1-1.3,0.3c-0.4,0.2-0.7,0.4-1,0.8c-0.3,0.4-0.4,0.7-0.5,1.1c-0.1,0.4-0.3,0.9-0.3,1.4H296.2z
		 M300.1,593.2c0,0.5-0.1,0.9-0.4,1.1c-0.2,0.3-0.5,0.4-0.9,0.4h-8.6c0,0.7,0.1,1.1,0.2,1.7c0.1,0.5,0.3,0.9,0.7,1.3
		c0.4,0.3,0.7,0.6,1.2,0.8c0.5,0.2,1.2,0.3,1.8,0.3c0.7,0,1.3-0.1,1.8-0.1s1-0.3,1.4-0.4c0.4-0.1,0.7-0.3,1-0.4
		c0.3-0.1,0.5-0.1,0.7-0.1c0.1,0,0.2,0,0.3,0.1c0.1,0.1,0.1,0.1,0.1,0.2c0.1,0.1,0.1,0.3,0.1,0.4c0.1,0.2,0.1,0.4,0.1,0.7
		c0,0.3,0,0.4-0.1,0.6c0,0.1,0,0.3-0.1,0.4c0,0.1-0.1,0.2-0.1,0.3c0,0.1-0.1,0.1-0.1,0.3c-0.1,0.1-0.3,0.1-0.6,0.3
		c-0.3,0.1-0.7,0.3-1.1,0.4c-0.5,0.1-1,0.2-1.7,0.3c-0.7,0.1-1.3,0.1-2,0.1c-1.2,0-2.4-0.1-3.3-0.4c-1-0.4-1.8-0.9-2.4-1.4
		c-0.7-0.7-1.1-1.5-1.4-2.5c-0.3-1-0.4-2.2-0.4-3.5c0-1.3,0.1-2.4,0.5-3.4c0.4-1,0.8-1.9,1.4-2.6c0.7-0.7,1.4-1.3,2.4-1.7
		c0.9-0.4,1.9-0.5,3-0.5c1.2,0,2.2,0.1,3.1,0.5c0.9,0.3,1.6,0.8,2.1,1.4c0.5,0.7,0.9,1.4,1.2,2.2c0.2,0.9,0.4,1.8,0.4,2.8V593.2z
		 M284.4,599.3c0,0.5-0.1,0.9-0.1,1.1c-0.1,0.3-0.1,0.4-0.3,0.5c-0.1,0.1-0.2,0.2-0.4,0.3c-0.2,0.1-0.4,0.1-0.7,0.2
		c-0.2,0.1-0.5,0.1-0.8,0.1c-0.3,0-0.6,0.1-0.9,0.1c-0.9,0-1.5-0.1-2.1-0.4c-0.6-0.2-1.1-0.5-1.4-0.9c-0.4-0.4-0.7-0.9-0.9-1.6
		c-0.2-0.7-0.3-1.4-0.3-2.3v-7.3h-1.8c-0.2,0-0.3-0.1-0.4-0.3c-0.1-0.3-0.2-0.7-0.2-1.3c0-0.3,0.1-0.6,0.1-0.8
		c0.1-0.3,0.1-0.4,0.1-0.5c0.1-0.1,0.1-0.2,0.2-0.3c0.1-0.1,0.2-0.1,0.3-0.1h1.7v-3.2c0-0.1,0.1-0.2,0.1-0.3
		c0.1-0.1,0.1-0.2,0.3-0.2c0.1-0.1,0.3-0.1,0.7-0.1c0.3,0,0.6,0,1,0s0.7,0,1,0c0.3,0.1,0.5,0.1,0.7,0.1c0.1,0.1,0.3,0.1,0.4,0.2
		c0.1,0.1,0.1,0.1,0.1,0.3v3.2h3.1c0.1,0,0.2,0.1,0.3,0.1c0.1,0.1,0.1,0.1,0.2,0.3c0.1,0.1,0.1,0.3,0.1,0.5c0,0.2,0.1,0.4,0.1,0.8
		c0,0.6-0.1,1-0.2,1.3c-0.1,0.2-0.3,0.3-0.4,0.3h-3.2v6.7c0,0.8,0.1,1.4,0.3,1.8c0.3,0.3,0.7,0.6,1.3,0.6c0.3,0,0.4,0,0.6-0.1
		c0.2-0.1,0.4-0.1,0.4-0.1c0.1-0.1,0.3-0.1,0.4-0.1c0.1,0,0.2-0.1,0.2-0.1c0.1,0,0.1,0,0.2,0.1c0.1,0.1,0.1,0.1,0.1,0.3
		c0.1,0.1,0.1,0.2,0.1,0.4C284.4,598.7,284.4,599,284.4,599.3L284.4,599.3z M268.2,594.6h-1.6c-0.7,0-1.2,0.1-1.7,0.1
		c-0.4,0.1-0.8,0.3-1.1,0.4c-0.3,0.2-0.5,0.4-0.7,0.7c-0.1,0.3-0.2,0.6-0.2,0.9c0,0.7,0.2,1.1,0.6,1.4c0.3,0.4,0.9,0.5,1.6,0.5
		c0.6,0,1.1-0.1,1.6-0.4c0.5-0.3,1-0.7,1.4-1.2L268.2,594.6L268.2,594.6z M272.2,600.8c0,0.1-0.1,0.3-0.1,0.4
		c-0.1,0.1-0.3,0.1-0.5,0.2c-0.2,0.1-0.6,0.1-1,0.1c-0.5,0-0.8,0-1.1-0.1c-0.2-0.1-0.4-0.1-0.4-0.2c-0.1-0.1-0.1-0.2-0.1-0.4v-1.1
		c-0.6,0.6-1.2,1.1-2,1.4c-0.8,0.3-1.6,0.5-2.5,0.5c-0.7,0-1.4-0.1-2.1-0.3c-0.7-0.2-1.1-0.5-1.7-0.9c-0.4-0.3-0.8-0.9-1.1-1.4
		c-0.3-0.6-0.4-1.2-0.4-2c0-0.8,0.2-1.6,0.5-2.2c0.4-0.7,0.9-1.1,1.4-1.6c0.7-0.3,1.4-0.7,2.5-0.9c0.9-0.2,2-0.3,3.3-0.3h1.4v-0.9
		c0-0.4-0.1-0.8-0.1-1.1c-0.1-0.3-0.3-0.7-0.4-0.9c-0.2-0.2-0.5-0.3-0.9-0.5c-0.4-0.1-0.8-0.2-1.2-0.2c-0.7,0-1.3,0.1-1.8,0.3
		c-0.5,0.1-1,0.3-1.4,0.5c-0.3,0.2-0.7,0.4-1,0.5c-0.3,0.1-0.5,0.3-0.7,0.3c-0.1,0-0.2-0.1-0.3-0.1c-0.1-0.1-0.1-0.2-0.3-0.4
		c-0.1-0.1-0.1-0.3-0.1-0.5c-0.1-0.2-0.1-0.4-0.1-0.7c0-0.4,0-0.6,0.1-0.8c0.1-0.2,0.1-0.4,0.3-0.5c0.2-0.1,0.4-0.4,0.9-0.5
		c0.4-0.2,0.8-0.3,1.3-0.5c0.5-0.1,1-0.3,1.6-0.4c0.6-0.1,1.2-0.1,1.8-0.1c1.2,0,2.1,0.1,2.9,0.3c0.8,0.2,1.4,0.6,1.9,1
		c0.5,0.5,0.9,1.1,1.1,1.7c0.2,0.7,0.4,1.6,0.4,2.5v9.8H272.2z M253.7,602.2c0-0.4-0.2-0.9-0.6-1.1c-0.3-0.3-0.9-0.4-1.6-0.4
		l-2.9-0.1c-0.3,0.2-0.5,0.3-0.7,0.6c-0.1,0.1-0.3,0.4-0.3,0.5c-0.1,0.1-0.1,0.3-0.2,0.5c-0.1,0.1-0.1,0.3-0.1,0.5
		c0,0.5,0.3,0.9,0.8,1.2c0.6,0.3,1.3,0.4,2.3,0.4c0.7,0,1.1-0.1,1.6-0.1c0.4-0.1,0.7-0.3,1-0.5c0.3-0.3,0.4-0.4,0.5-0.7
		C253.6,602.7,253.7,602.4,253.7,602.2L253.7,602.2z M252.7,590.8c0-0.7-0.3-1.4-0.7-1.8c-0.3-0.4-1-0.7-1.8-0.7
		c-0.4,0-0.7,0.1-1,0.2c-0.3,0.1-0.5,0.4-0.7,0.6c-0.2,0.2-0.3,0.5-0.4,0.8c-0.1,0.3-0.1,0.7-0.1,1c0,0.7,0.2,1.2,0.7,1.7
		c0.4,0.4,1,0.7,1.7,0.7c0.4,0,0.8-0.1,1.1-0.2c0.3-0.1,0.5-0.3,0.7-0.5c0.2-0.2,0.4-0.5,0.5-0.8
		C252.7,591.4,252.7,591.1,252.7,590.8L252.7,590.8z M257.9,587.4c0,0.5-0.1,0.9-0.2,1.1c-0.1,0.3-0.2,0.4-0.4,0.4h-1.7
		c0.3,0.2,0.4,0.5,0.5,0.9c0.1,0.3,0.1,0.7,0.1,1c0,0.8-0.1,1.6-0.3,2.2c-0.3,0.7-0.7,1.1-1.2,1.7c-0.5,0.4-1.1,0.7-1.8,1
		c-0.7,0.3-1.6,0.4-2.5,0.4c-0.5,0-0.9-0.1-1.3-0.1c-0.4-0.1-0.7-0.3-1-0.4c-0.1,0.1-0.2,0.3-0.3,0.5c-0.1,0.2-0.1,0.4-0.1,0.7
		c0,0.4,0.1,0.6,0.4,0.8c0.3,0.2,0.7,0.3,1.1,0.3l3.5,0.1c0.9,0.1,1.6,0.1,2.2,0.3c0.7,0.2,1.1,0.5,1.6,0.9c0.4,0.4,0.8,0.9,1,1.3
		c0.2,0.5,0.3,1.1,0.3,1.7c0,0.7-0.1,1.4-0.5,2c-0.3,0.7-0.7,1.1-1.4,1.6c-0.7,0.5-1.4,0.8-2.4,1.1c-0.9,0.2-2,0.4-3.2,0.4
		c-1.2,0-2.3-0.1-3.1-0.3c-0.9-0.2-1.6-0.4-2.2-0.8c-0.5-0.4-0.9-0.8-1.1-1.3c-0.3-0.4-0.3-1-0.3-1.6c0-0.4,0.1-0.7,0.1-1
		c0.1-0.3,0.2-0.7,0.3-0.9c0.1-0.3,0.4-0.6,0.7-0.8c0.3-0.3,0.5-0.5,0.9-0.8c-0.4-0.2-0.8-0.6-1.1-1c-0.2-0.3-0.3-0.9-0.3-1.4
		c0-0.7,0.1-1.2,0.4-1.8c0.3-0.5,0.7-1,1.1-1.4c-0.4-0.3-0.7-0.8-0.9-1.3c-0.2-0.5-0.4-1.1-0.4-1.9c0-0.8,0.1-1.6,0.4-2.2
		c0.3-0.7,0.7-1.2,1.3-1.7c0.5-0.4,1.1-0.9,1.8-1c0.7-0.3,1.5-0.4,2.4-0.4c0.5,0,0.9,0.1,1.3,0.1c0.4,0.1,0.8,0.1,1.2,0.2l4.5,0
		c0.2,0,0.4,0.1,0.4,0.4C257.9,586.4,257.9,586.9,257.9,587.4L257.9,587.4z M229.2,586.4c0,0.1,0,0.1,0,0.2c0,0.1,0,0.1-0.1,0.3
		c0,0.1-0.1,0.2-0.1,0.3c-0.1,0.1-0.1,0.3-0.1,0.4l-4.3,12.9c-0.1,0.2-0.1,0.4-0.2,0.4c-0.1,0.1-0.3,0.2-0.4,0.3
		c-0.2,0.1-0.5,0.1-0.9,0.1c-0.4,0.1-0.8,0.1-1.4,0.1c-0.6,0-1,0-1.4-0.1c-0.4,0-0.7-0.1-0.9-0.1c-0.2-0.1-0.4-0.1-0.4-0.3
		c-0.1-0.1-0.1-0.2-0.2-0.4l-4.3-12.9c-0.1-0.2-0.1-0.4-0.1-0.6c-0.1-0.2-0.1-0.3-0.1-0.3c0-0.1,0-0.1,0-0.2c0-0.1,0.1-0.2,0.1-0.3
		c0.1-0.1,0.1-0.1,0.3-0.2c0.2-0.1,0.4-0.1,0.7-0.1c0.3-0.1,0.6-0.1,1-0.1c0.4,0,0.8,0,1.1,0.1c0.3,0,0.5,0.1,0.7,0.1
		c0.2,0.1,0.3,0.1,0.4,0.3c0.1,0.1,0.1,0.2,0.1,0.3l3.3,10.5l0.1,0.3l0.1-0.3l3.2-10.5c0-0.1,0.1-0.2,0.1-0.3
		c0.1-0.1,0.2-0.2,0.3-0.3c0.2-0.1,0.4-0.1,0.6-0.1c0.3-0.1,0.6-0.1,1-0.1c0.4,0,0.7,0,1,0.1c0.3,0,0.5,0.1,0.6,0.1
		c0.1,0.1,0.3,0.1,0.3,0.2C229.2,586.2,229.2,586.3,229.2,586.4L229.2,586.4z M208.6,594.6H207c-0.7,0-1.2,0.1-1.7,0.1
		c-0.4,0.1-0.8,0.3-1.1,0.4c-0.3,0.2-0.5,0.4-0.7,0.7c-0.1,0.3-0.2,0.6-0.2,0.9c0,0.7,0.2,1.1,0.6,1.4c0.3,0.4,0.9,0.5,1.6,0.5
		c0.5,0,1.1-0.1,1.6-0.4c0.5-0.3,1-0.7,1.4-1.2L208.6,594.6L208.6,594.6z M212.5,600.8c0,0.1-0.1,0.3-0.1,0.4
		c-0.1,0.1-0.3,0.1-0.5,0.2c-0.2,0.1-0.5,0.1-1,0.1c-0.4,0-0.9,0-1-0.1c-0.2-0.1-0.4-0.1-0.5-0.2c-0.1-0.1-0.1-0.2-0.1-0.4v-1.1
		c-0.7,0.6-1.2,1.1-2,1.4c-0.7,0.3-1.6,0.5-2.5,0.5c-0.8,0-1.4-0.1-2.1-0.3c-0.7-0.2-1.1-0.5-1.7-0.9c-0.4-0.3-0.9-0.9-1.1-1.4
		c-0.3-0.6-0.4-1.2-0.4-2c0-0.8,0.1-1.6,0.5-2.2c0.4-0.7,0.9-1.1,1.4-1.6c0.7-0.3,1.4-0.7,2.4-0.9c1-0.2,2.1-0.3,3.4-0.3h1.4v-0.9
		c0-0.4-0.1-0.8-0.1-1.1c-0.1-0.3-0.3-0.7-0.4-0.9c-0.3-0.2-0.5-0.3-0.9-0.5c-0.4-0.1-0.8-0.2-1.3-0.2c-0.7,0-1.3,0.1-1.8,0.3
		c-0.5,0.1-1,0.3-1.4,0.5c-0.4,0.2-0.8,0.4-1,0.5c-0.3,0.1-0.5,0.3-0.7,0.3c-0.1,0-0.2-0.1-0.3-0.1c-0.1-0.1-0.2-0.2-0.3-0.4
		c-0.1-0.1-0.1-0.3-0.1-0.5c0-0.2-0.1-0.4-0.1-0.7c0-0.4,0.1-0.6,0.1-0.8c0.1-0.2,0.1-0.4,0.3-0.5c0.1-0.1,0.4-0.4,0.8-0.5
		c0.4-0.2,0.9-0.3,1.3-0.5c0.5-0.1,1.1-0.3,1.7-0.4c0.6-0.1,1.2-0.1,1.8-0.1c1.2,0,2,0.1,2.9,0.3c0.8,0.2,1.4,0.6,1.9,1
		c0.5,0.5,0.9,1.1,1.1,1.7c0.3,0.7,0.4,1.6,0.4,2.5v9.8H212.5z M196,599.8c0,0.3-0.1,0.4-0.1,0.7c-0.1,0.2-0.2,0.4-0.4,0.5
		c-0.1,0.1-0.3,0.3-0.5,0.3c-0.2,0.1-0.3,0.1-0.6,0.1h-1.8c-0.4,0-0.7-0.1-1-0.1c-0.3-0.1-0.5-0.2-0.8-0.4c-0.2-0.2-0.4-0.5-0.7-0.8
		c-0.3-0.4-0.5-0.8-0.7-1.3l-5.2-9.7c-0.3-0.6-0.6-1.2-0.9-1.9c-0.4-0.7-0.6-1.3-0.9-1.9l0,0c0.1,0.8,0.1,1.6,0.1,2.3
		c0,0.7,0.1,1.5,0.1,2.4v10.9c0,0.1-0.1,0.2-0.1,0.3c-0.1,0.1-0.2,0.1-0.4,0.2c-0.1,0.1-0.3,0.1-0.6,0.1c-0.2,0.1-0.5,0.1-0.9,0.1
		c-0.4,0-0.7,0-0.9-0.1c-0.3-0.1-0.4-0.1-0.6-0.1c-0.1-0.1-0.3-0.1-0.3-0.2c-0.1-0.1-0.1-0.2-0.1-0.3v-18.7c0-0.5,0.1-0.9,0.4-1.1
		c0.3-0.3,0.7-0.4,1.1-0.4h2.2c0.4,0,0.7,0.1,1,0.1c0.3,0.1,0.5,0.1,0.7,0.4c0.2,0.1,0.4,0.4,0.7,0.7c0.2,0.3,0.4,0.7,0.6,1.1l4,7.6
		c0.2,0.4,0.5,0.9,0.7,1.3c0.3,0.4,0.5,0.9,0.7,1.4c0.2,0.5,0.4,0.9,0.7,1.3c0.2,0.4,0.3,0.9,0.6,1.3l0,0c-0.1-0.8-0.1-1.6-0.1-2.3
		c-0.1-0.9-0.1-1.6-0.1-2.4v-9.9c0-0.1,0.1-0.2,0.1-0.3c0.1-0.1,0.2-0.1,0.4-0.2c0.1-0.1,0.3-0.1,0.6-0.1c0.2-0.1,0.5-0.1,0.9-0.1
		c0.4,0,0.7,0,0.9,0.1c0.3,0,0.4,0.1,0.6,0.1c0.1,0.1,0.3,0.1,0.3,0.2c0.1,0.1,0.1,0.2,0.1,0.3v18.6H196z M368.4,598.5
		c0,0.3,0,0.5-0.1,0.7c0,0.2-0.1,0.4-0.1,0.5c-0.1,0.1-0.1,0.2-0.1,0.3c-0.1,0.1-0.1,0.1-0.2,0.3c-0.1,0.1-0.4,0.3-0.7,0.4
		c-0.3,0.2-0.7,0.4-1,0.5c-0.4,0.1-0.8,0.2-1.3,0.3c-0.4,0.1-0.9,0.1-1.4,0.1c-1.1,0-2.1-0.1-2.9-0.5c-0.9-0.4-1.6-0.9-2.2-1.5
		c-0.6-0.7-1-1.5-1.3-2.5c-0.3-1-0.4-2.1-0.4-3.3c0-1.4,0.2-2.7,0.5-3.7c0.3-1,0.9-1.9,1.5-2.6c0.6-0.7,1.4-1.1,2.2-1.5
		c0.9-0.3,1.8-0.5,2.9-0.5c0.3,0,0.8,0.1,1.2,0.1c0.4,0.1,0.9,0.2,1.1,0.3c0.4,0.1,0.7,0.3,1,0.4c0.3,0.2,0.5,0.3,0.6,0.4
		s0.2,0.2,0.3,0.3c0.1,0.1,0.1,0.2,0.1,0.3s0.1,0.3,0.1,0.5c0,0.2,0,0.4,0,0.7c0,0.7-0.1,1.1-0.1,1.3c-0.1,0.2-0.3,0.4-0.4,0.4
		c-0.2,0-0.4-0.1-0.6-0.3c-0.3-0.1-0.4-0.3-0.7-0.5c-0.3-0.2-0.7-0.3-1-0.5c-0.4-0.1-0.9-0.2-1.4-0.2c-1,0-1.9,0.4-2.4,1.2
		c-0.6,0.9-0.8,2-0.8,3.5c0,0.7,0.1,1.4,0.2,2c0.1,0.6,0.4,1.1,0.7,1.4c0.3,0.4,0.6,0.7,1,0.9c0.4,0.2,0.9,0.3,1.4,0.3
		c0.6,0,1-0.1,1.4-0.2c0.3-0.1,0.7-0.4,1-0.5c0.3-0.3,0.5-0.4,0.8-0.6c0.2-0.1,0.4-0.2,0.5-0.2s0.2,0.1,0.3,0.1
		c0.1,0.1,0.1,0.1,0.1,0.3c0,0.2,0.1,0.3,0.1,0.5C368.3,597.8,368.4,598.1,368.4,598.5L368.4,598.5z M384.5,593.2
		c0,0.5-0.1,0.9-0.4,1.1c-0.2,0.3-0.5,0.4-0.9,0.4h-8.6c0,0.7,0.1,1.1,0.2,1.7c0.1,0.5,0.4,0.9,0.7,1.3c0.4,0.3,0.7,0.6,1.2,0.8
		c0.5,0.2,1.2,0.3,1.8,0.3c0.7,0,1.3-0.1,1.9-0.1c0.5-0.1,0.9-0.3,1.4-0.4c0.4-0.1,0.7-0.3,1-0.4c0.3-0.1,0.5-0.1,0.7-0.1
		c0.1,0,0.2,0,0.3,0.1s0.1,0.1,0.1,0.2c0.1,0.1,0.1,0.3,0.1,0.4c0,0.2,0.1,0.4,0.1,0.7c0,0.3-0.1,0.4-0.1,0.6c0,0.2,0,0.3-0.1,0.4
		c0,0.1-0.1,0.2-0.1,0.3c-0.1,0.1-0.1,0.1-0.1,0.3c-0.1,0.1-0.3,0.1-0.6,0.3c-0.3,0.1-0.7,0.3-1.2,0.4c-0.5,0.1-1,0.2-1.7,0.3
		c-0.7,0.1-1.2,0.1-2,0.1c-1.2,0-2.4-0.1-3.3-0.4c-1-0.4-1.8-0.9-2.4-1.4c-0.7-0.7-1.1-1.5-1.4-2.5c-0.3-1-0.5-2.2-0.5-3.5
		c0-1.3,0.2-2.4,0.5-3.4c0.3-1,0.8-1.9,1.4-2.6c0.7-0.7,1.4-1.3,2.3-1.7c0.9-0.4,1.9-0.5,3.1-0.5c1.2,0,2.2,0.1,3.1,0.5
		c0.9,0.3,1.6,0.8,2.1,1.4c0.5,0.7,1,1.4,1.2,2.2c0.2,0.9,0.4,1.8,0.4,2.8V593.2z M380.6,592c0-1.1-0.2-2-0.7-2.7
		c-0.5-0.7-1.3-1-2.3-1c-0.5,0-0.9,0.1-1.3,0.3c-0.4,0.2-0.7,0.4-1,0.8c-0.2,0.4-0.4,0.7-0.6,1.1c-0.1,0.4-0.2,0.9-0.2,1.4H380.6z
		 M397.9,596.6c0,0.8-0.1,1.5-0.5,2.2c-0.3,0.7-0.7,1.1-1.3,1.6c-0.6,0.4-1.2,0.7-2,0.9c-0.7,0.2-1.6,0.3-2.5,0.3
		c-0.5,0-1.1,0-1.6-0.1c-0.5-0.1-0.9-0.2-1.3-0.3c-0.4-0.1-0.7-0.3-0.9-0.4c-0.3-0.1-0.4-0.2-0.6-0.4c-0.1-0.1-0.2-0.3-0.2-0.5
		c-0.1-0.2-0.1-0.6-0.1-1c0-0.3,0-0.6,0-0.8c0.1-0.1,0.1-0.3,0.1-0.4c0.1-0.1,0.1-0.2,0.2-0.2c0.1-0.1,0.1-0.1,0.2-0.1
		c0.1,0,0.3,0.1,0.6,0.2c0.2,0.1,0.5,0.3,0.9,0.4c0.4,0.1,0.7,0.3,1.1,0.4c0.5,0.1,1,0.2,1.6,0.2c0.3,0,0.7,0,0.9-0.1
		c0.3-0.1,0.5-0.2,0.7-0.3c0.2-0.1,0.3-0.4,0.5-0.5c0.1-0.2,0.1-0.5,0.1-0.8c0-0.3-0.1-0.6-0.3-0.8c-0.2-0.2-0.5-0.4-0.8-0.7
		c-0.4-0.1-0.7-0.4-1.1-0.5c-0.4-0.1-0.9-0.3-1.3-0.5c-0.4-0.2-0.9-0.4-1.2-0.7c-0.4-0.3-0.8-0.5-1.2-0.9c-0.3-0.4-0.6-0.8-0.8-1.3
		c-0.2-0.5-0.3-1-0.3-1.7s0.1-1.3,0.4-1.9c0.3-0.6,0.7-1.1,1.1-1.4c0.5-0.4,1.2-0.7,1.9-0.9c0.7-0.3,1.5-0.4,2.5-0.4
		c0.4,0,0.9,0,1.3,0.1c0.4,0.1,0.8,0.1,1.2,0.3c0.3,0.1,0.7,0.2,0.9,0.3c0.3,0.1,0.4,0.2,0.5,0.3c0.1,0.1,0.1,0.1,0.2,0.3
		c0.1,0.1,0.1,0.1,0.1,0.3c0,0.1,0.1,0.3,0.1,0.4c0.1,0.2,0.1,0.4,0.1,0.7c0,0.3,0,0.5-0.1,0.7c0,0.2-0.1,0.4-0.1,0.4
		c-0.1,0.1-0.1,0.2-0.2,0.3c-0.1,0.1-0.1,0.1-0.2,0.1c-0.1,0-0.2-0.1-0.5-0.2c-0.2-0.1-0.4-0.2-0.7-0.3c-0.4-0.1-0.7-0.3-1.1-0.4
		c-0.4-0.1-0.9-0.2-1.4-0.2c-0.4,0-0.7,0.1-1,0.1c-0.2,0.1-0.5,0.1-0.7,0.3c-0.2,0.1-0.4,0.3-0.4,0.5c-0.1,0.2-0.1,0.4-0.1,0.6
		c0,0.3,0.1,0.7,0.3,0.9c0.2,0.2,0.5,0.4,0.8,0.6c0.4,0.1,0.7,0.3,1.1,0.5c0.4,0.1,0.9,0.3,1.3,0.5c0.4,0.1,0.9,0.4,1.3,0.6
		c0.4,0.2,0.8,0.5,1.2,0.9c0.3,0.4,0.6,0.7,0.8,1.2C397.8,595.4,397.9,596,397.9,596.6L397.9,596.6z M410.9,596.6
		c0,0.8-0.2,1.5-0.5,2.2c-0.3,0.7-0.7,1.1-1.2,1.6c-0.6,0.4-1.2,0.7-2,0.9c-0.7,0.2-1.6,0.3-2.5,0.3c-0.5,0-1,0-1.5-0.1
		c-0.5-0.1-0.9-0.2-1.3-0.3c-0.4-0.1-0.7-0.3-1-0.4c-0.3-0.1-0.4-0.2-0.5-0.4c-0.1-0.1-0.2-0.3-0.3-0.5c-0.1-0.2-0.1-0.6-0.1-1
		c0-0.3,0.1-0.6,0.1-0.8c0-0.1,0.1-0.3,0.1-0.4c0.1-0.1,0.1-0.2,0.1-0.2c0.1-0.1,0.1-0.1,0.2-0.1s0.3,0.1,0.5,0.2
		c0.3,0.1,0.5,0.3,0.9,0.4c0.3,0.1,0.8,0.3,1.2,0.4c0.4,0.1,1,0.2,1.6,0.2c0.4,0,0.7,0,1-0.1c0.2-0.1,0.5-0.2,0.7-0.3
		c0.2-0.1,0.4-0.4,0.4-0.5c0.1-0.2,0.2-0.5,0.2-0.8c0-0.3-0.1-0.6-0.3-0.8c-0.2-0.2-0.5-0.4-0.8-0.7c-0.3-0.1-0.7-0.4-1.1-0.5
		c-0.4-0.1-0.8-0.3-1.2-0.5c-0.4-0.2-0.9-0.4-1.3-0.7c-0.4-0.3-0.8-0.5-1.1-0.9c-0.4-0.4-0.6-0.8-0.8-1.3c-0.2-0.5-0.3-1-0.3-1.7
		s0.1-1.3,0.4-1.9c0.2-0.6,0.7-1.1,1.1-1.4c0.5-0.4,1.1-0.7,1.8-0.9c0.7-0.3,1.6-0.4,2.5-0.4c0.4,0,0.9,0,1.3,0.1
		c0.4,0.1,0.8,0.1,1.1,0.3c0.3,0.1,0.7,0.2,0.9,0.3c0.2,0.1,0.3,0.2,0.5,0.3c0.1,0.1,0.2,0.1,0.3,0.3c0.1,0.1,0.1,0.1,0.1,0.3
		c0,0.1,0.1,0.3,0.1,0.4c0,0.2,0,0.4,0,0.7c0,0.3,0,0.5,0,0.7c0,0.2-0.1,0.4-0.1,0.4c-0.1,0.1-0.1,0.2-0.1,0.3
		c0,0.1-0.1,0.1-0.2,0.1c-0.1,0-0.3-0.1-0.5-0.2c-0.2-0.1-0.4-0.2-0.8-0.3c-0.3-0.1-0.7-0.3-1-0.4c-0.4-0.1-0.9-0.2-1.4-0.2
		c-0.3,0-0.7,0.1-0.9,0.1c-0.3,0.1-0.5,0.1-0.7,0.3c-0.1,0.1-0.3,0.3-0.3,0.5c-0.1,0.2-0.1,0.4-0.1,0.6c0,0.3,0.1,0.7,0.3,0.9
		c0.2,0.2,0.5,0.4,0.9,0.6c0.3,0.1,0.7,0.3,1.1,0.5c0.3,0.1,0.8,0.3,1.2,0.5c0.4,0.1,0.9,0.4,1.3,0.6c0.3,0.2,0.8,0.5,1.1,0.9
		c0.4,0.4,0.6,0.7,0.8,1.2C410.8,595.4,410.9,596,410.9,596.6L410.9,596.6z"/>
	<path class="st0" d="M361.5,327.8v0.1c0.2,0,0.4,0.1,0.7,0.1L361.5,327.8z M199,345.8h1.6c0.2,0,0.3,0,0.4,0.1
		c0.1,0.1,0.1,0.1,0.2,0.3l1.8,5.8c0,0.1,0.1,0.3,0.1,0.5c0.1,0.1,0.1,0.4,0.1,0.5c0.1-0.2,0.1-0.3,0.1-0.5c0-0.2,0.1-0.3,0.1-0.5
		l2-5.8c0.1-0.1,0.1-0.2,0.3-0.3c0.1-0.1,0.2-0.1,0.4-0.1h0.6c0.1,0,0.3,0,0.4,0.1c0.1,0.1,0.2,0.1,0.2,0.3l2,5.8
		c0.1,0.3,0.2,0.7,0.3,1c0-0.2,0.1-0.3,0.1-0.5c0-0.2,0.1-0.3,0.1-0.5l1.7-5.8c0.1-0.1,0.1-0.2,0.2-0.3c0.1-0.1,0.3-0.1,0.4-0.1h1.4
		l-3.1,9.7h-1.6l-2.2-6.6c0-0.1-0.1-0.2-0.1-0.3c-0.1-0.1-0.1-0.2-0.1-0.3c-0.1,0.1-0.1,0.2-0.1,0.3c-0.1,0.1-0.1,0.2-0.1,0.3
		l-2.2,6.6h-1.7L199,345.8z M390.8,345.1v1.9H385v3.5h4.6v1.9H385v3.5h5.8v1.9h-8.3v-12.7L390.8,345.1L390.8,345.1z M234.5,327.8
		v0.4c-0.3-0.1-0.6-0.1-0.9-0.1L234.5,327.8z M235.4,375.2v0.7l-1.3-0.4C234.5,375.4,235,375.3,235.4,375.2L235.4,375.2z
		 M203.6,366.7l-47-13.5l46.7-15.2c2.7-19.4,11.5-37,24.1-50.8l-10.7-12.8c-4-4.8-9.6-7.9-15.6-9c-1.6-0.4-3.2-1.1-4.4-2.4
		c-3.5-3.5-3.4-9.1,0.3-12.5c3.4-3,8.6-2.9,11.9,0.2c1.3,1.3,2.1,2.8,2.5,4.5c1.2,6.1,4.3,11.7,9.1,15.7l12.8,10.7
		c16-14.7,37-24,60.2-24.9l1.5-17.1c0.5-6-1.3-11.9-4.7-16.9c-0.9-1.4-1.5-3.1-1.5-4.9c0-4.9,4.1-8.9,9-8.6c4.5,0.3,8.1,4,8.2,8.4
		c0.1,1.8-0.5,3.5-1.4,5c-3.4,5.2-5.3,11.3-4.7,17.5l1.4,16.6c23.2,1,44.3,10.3,60.3,25l12.8-10.7c4.7-4,7.9-9.6,9.1-15.7
		c0.3-1.6,1.1-3.1,2.3-4.4c3.5-3.5,9.2-3.4,12.6,0.3c3,3.3,2.9,8.6-0.2,11.8c-1.2,1.3-2.8,2.1-4.5,2.5c-6,1.2-11.7,4.3-15.7,9.1
		l-10.7,12.8c12.6,13.7,21.2,31.1,24.1,50.3l48,15.6l-48.4,14c-3.1,18.5-11.6,35.3-23.8,48.5l10.7,12.8c4,4.7,9.6,7.9,15.6,9.1
		c1.6,0.3,3.2,1.1,4.5,2.3c3.5,3.5,3.4,9.1-0.4,12.5c-3.3,3.1-8.6,2.9-11.8-0.2c-1.2-1.2-2.1-2.8-2.4-4.4
		c-1.3-6.1-4.3-11.7-9.1-15.7l-12.8-10.7c-16,14.7-37.1,24.1-60.2,25l-1.5,17.1c-0.5,6,1.3,11.9,4.7,16.9c1,1.4,1.5,3.1,1.5,4.8
		c0,4.9-4.1,8.9-9.1,8.6c-4.5-0.2-8.1-4-8.2-8.4c-0.1-1.8,0.4-3.5,1.4-5c3.4-5.2,5.3-11.3,4.7-17.5l-1.4-16.6
		c-23.2-1-44.3-10.3-60.3-25l-12.8,10.7c-4.8,4-7.9,9.6-9.1,15.6c-0.4,1.6-1.1,3.2-2.4,4.4c-3.5,3.5-9.1,3.4-12.5-0.3
		c-3-3.3-2.9-8.6,0.2-11.8c1.3-1.3,2.8-2.1,4.5-2.4c6.1-1.3,11.7-4.3,15.7-9.1l10.7-12.8C215.2,402.3,206.6,385.4,203.6,366.7
		L203.6,366.7z M360.6,375.7v0.1l0.4-0.1H360.6z M351,290.5l-18.7,15.6c-7.9-6.1-17.3-10.1-27.6-11.5l-2.2-24.3
		C321.1,271.6,337.9,279,351,290.5L351,290.5z M292.1,270.4l-2.2,24.3c-10.3,1.3-19.7,5.4-27.6,11.5l-18.7-15.6
		C256.9,279,273.7,271.6,292.1,270.4L292.1,270.4z M236.4,297.8l15.6,18.7c-6.1,7.9-10.1,17.3-11.5,27.7l-24.3,2.2
		C217.5,327.8,224.9,310.9,236.4,297.8L236.4,297.8z M216.4,356.7l24.3,2.2c1.3,10.3,5.3,19.7,11.5,27.6l-15.6,18.7
		C224.9,392,217.5,375.2,216.4,356.7L216.4,356.7z M243.7,412.4l18.7-15.7c7.9,6.1,17.3,10.1,27.6,11.5l2.2,24.3
		C273.7,431.4,256.9,424,243.7,412.4L243.7,412.4z M297.4,399c-26.3,0-47.6-21.3-47.6-47.6c0-26.2,21.2-47.6,47.6-47.6
		c26.2,0,47.6,21.3,47.6,47.6C345,377.7,323.6,399,297.4,399L297.4,399z M302.5,432.5l2.2-24.3c10.3-1.3,19.7-5.4,27.6-11.5
		l18.7,15.7C337.9,424,321.1,431.4,302.5,432.5L302.5,432.5z M358.3,405.1l-15.7-18.7c6.1-7.9,10.1-17.3,11.5-27.6l24.3-2.2
		C377.2,375.2,369.8,392,358.3,405.1L358.3,405.1z M354.1,344.2c-1.3-10.3-5.4-19.8-11.5-27.7l15.7-18.7
		c11.5,13.1,18.9,29.9,20,48.4L354.1,344.2z"/>
	<polygon class="st1" points="326.2,284.3 325.5,295.9 318.4,292.8 	"/>
	<polygon class="st0" points="364.9,323.6 356.4,331.3 353.4,324.2 	"/>
	<polygon class="st1" points="365.3,378.4 353.8,377.9 356.6,370.9 	"/>
	<polygon class="st0" points="327.1,418.2 319.1,409.9 326.1,406.7 	"/>
	<polygon class="st1" points="267.1,417.9 268,406.4 275,409.6 	"/>
	<polygon class="st0" points="228.7,376.2 237.6,368.8 240.1,376.1 	"/>
	<polygon class="st1" points="229,325.7 240.6,325.8 237.9,333 	"/>
	<polygon class="st0" points="267.1,285.1 275.2,293.3 268.2,296.4 	"/>
	<path class="st1" d="M298,311.2c22.2,0,40.2,18.1,40.2,40.3c0,22.3-18,40.3-40.2,40.3c-22.3,0-40.3-18-40.3-40.3
		C257.8,329.3,275.8,311.2,298,311.2L298,311.2z M297.6,314.6c0-0.1,0.2-0.3,0.4-0.3c0.2,0,0.4,0.1,0.4,0.3v3.1
		c0,0.1-0.2,0.3-0.4,0.3c-0.3,0-0.4-0.1-0.4-0.3V314.6z M293,314.9c-0.1-0.1,0.1-0.3,0.4-0.3c0.2-0.1,0.4,0.1,0.4,0.2l0.4,3.1
		c0,0.2-0.1,0.4-0.4,0.4c-0.2,0.1-0.4-0.1-0.5-0.3L293,314.9z M286.8,316.4c-0.1-0.2,0.1-0.4,0.4-0.4c0.2-0.1,0.4,0,0.5,0.2l0.9,2.9
		c0.1,0.2-0.1,0.4-0.4,0.4c-0.2,0.1-0.4,0-0.5-0.2L286.8,316.4z M281.1,318.8c-0.1-0.1,0-0.4,0.2-0.4c0.2-0.1,0.4-0.1,0.5,0.1
		l1.4,2.7c0.1,0.1-0.1,0.4-0.3,0.5c-0.2,0.1-0.4,0.1-0.5-0.1L281.1,318.8z M275.6,322.1c-0.1-0.1,0-0.3,0.2-0.5
		c0.2-0.1,0.4-0.1,0.5,0l1.9,2.5c0.1,0.1,0.1,0.4-0.1,0.5c-0.2,0.1-0.4,0.1-0.5,0L275.6,322.1z M271,326.3c-0.1-0.1-0.1-0.3,0.1-0.5
		c0.1-0.1,0.4-0.2,0.5-0.1l2.2,2.2c0.1,0.1,0.1,0.4-0.1,0.5c-0.2,0.1-0.3,0.2-0.5,0.1L271,326.3z M267.1,331.3
		c-0.1-0.1-0.1-0.4,0-0.5c0.1-0.2,0.3-0.3,0.5-0.2l2.6,1.7c0.1,0.1,0.1,0.3,0,0.5c-0.1,0.2-0.3,0.3-0.5,0.2L267.1,331.3z
		 M264.1,336.8c-0.1-0.1-0.2-0.3-0.1-0.5c0.1-0.2,0.3-0.4,0.4-0.3l2.8,1.3c0.1,0.1,0.2,0.3,0.1,0.5c-0.1,0.2-0.3,0.3-0.4,0.3
		L264.1,336.8z M262.2,342.8c-0.2,0-0.3-0.2-0.2-0.5c0.1-0.2,0.2-0.3,0.3-0.3l3,0.8c0.1,0.1,0.3,0.3,0.2,0.5
		c-0.1,0.3-0.2,0.4-0.4,0.4L262.2,342.8z M261.2,349c-0.1,0-0.3-0.2-0.2-0.4c0-0.3,0.1-0.4,0.3-0.4l3.1,0.2c0.1,0,0.3,0.2,0.3,0.4
		c0,0.3-0.1,0.4-0.4,0.4L261.2,349z M261.3,355.4c-0.2,0-0.3-0.2-0.3-0.4c0-0.2,0.1-0.4,0.3-0.5l3.1-0.3c0.2,0,0.4,0.2,0.4,0.3
		c0.1,0.3-0.1,0.5-0.3,0.5L261.3,355.4z M262.5,361.6c-0.1,0.1-0.4-0.1-0.4-0.4c-0.1-0.2,0-0.4,0.1-0.5l3-0.8
		c0.1-0.1,0.4,0.1,0.4,0.3c0.1,0.3,0,0.4-0.2,0.5L262.5,361.6z M264.7,367.4c-0.1,0.1-0.4-0.1-0.5-0.2c-0.1-0.3-0.1-0.5,0.1-0.5
		l2.8-1.3c0.1-0.1,0.3,0.1,0.4,0.3c0.1,0.2,0.1,0.4-0.1,0.5L264.7,367.4z M267.9,372.8c-0.1,0.1-0.4,0.1-0.5-0.1
		c-0.1-0.2-0.1-0.4,0-0.5l2.6-1.8c0.1-0.1,0.4-0.1,0.5,0.1c0.1,0.2,0.1,0.4,0,0.5L267.9,372.8z M272,377.6c-0.1,0.1-0.4,0.1-0.5-0.1
		c-0.1-0.1-0.2-0.4-0.1-0.5l2.2-2.2c0.1-0.1,0.4-0.1,0.5,0.1c0.1,0.1,0.2,0.4,0.1,0.5L272,377.6z M276.8,381.7
		c-0.1,0.1-0.3,0.1-0.5,0c-0.2-0.1-0.3-0.4-0.2-0.5l1.8-2.5c0.1-0.1,0.3-0.1,0.5,0c0.2,0.1,0.2,0.4,0.1,0.5L276.8,381.7z
		 M282.3,384.8c-0.1,0.1-0.3,0.2-0.5,0.1c-0.2-0.1-0.4-0.3-0.2-0.5l1.3-2.7c0.1-0.1,0.4-0.2,0.5-0.1c0.2,0.1,0.4,0.4,0.3,0.5
		L282.3,384.8z M288.2,387.1c-0.1,0.1-0.3,0.2-0.5,0.2c-0.3-0.1-0.4-0.3-0.4-0.4l0.8-2.9c0.1-0.1,0.3-0.2,0.6-0.2
		c0.2,0.1,0.3,0.3,0.3,0.4L288.2,387.1z M294.4,388.2c0,0.1-0.3,0.2-0.4,0.2c-0.3-0.1-0.4-0.2-0.4-0.4l0.4-3c0-0.2,0.2-0.3,0.4-0.3
		c0.2,0.1,0.3,0.2,0.3,0.4L294.4,388.2z M300.7,388.3c0,0.2-0.2,0.4-0.4,0.4c-0.3,0-0.4-0.1-0.4-0.3l-0.2-3.1c0-0.2,0.2-0.4,0.3-0.4
		c0.3,0,0.4,0.1,0.5,0.3L300.7,388.3z M306.9,387.3c0.1,0.1-0.1,0.4-0.4,0.4c-0.2,0.1-0.4-0.1-0.5-0.2l-0.7-3c0-0.2,0.1-0.3,0.3-0.3
		c0.2-0.1,0.4,0,0.5,0.2L306.9,387.3z M312.8,385.3c0.1,0.1-0.1,0.4-0.3,0.4c-0.2,0.1-0.4,0.1-0.5-0.1l-1.2-2.9
		c-0.1-0.1,0.1-0.4,0.2-0.4c0.3-0.1,0.4-0.1,0.5,0.1L312.8,385.3z M318.4,382.2c0.1,0.1,0,0.4-0.2,0.5c-0.2,0.1-0.4,0.1-0.5-0.1
		l-1.7-2.6c-0.1-0.1,0-0.4,0.2-0.5c0.2-0.1,0.4-0.1,0.5,0L318.4,382.2z M323.3,378.3c0.1,0.1,0.1,0.4-0.1,0.5
		c-0.1,0.2-0.4,0.2-0.5,0.1l-2.2-2.3c-0.1-0.1-0.1-0.3,0.1-0.5c0.1-0.2,0.3-0.2,0.5-0.1L323.3,378.3z M327.5,373.6
		c0.1,0.1,0.1,0.4-0.1,0.5c-0.1,0.2-0.4,0.3-0.5,0.1l-2.5-1.9c-0.1-0.1-0.1-0.4,0.1-0.5c0.1-0.2,0.4-0.3,0.5-0.1L327.5,373.6z
		 M330.8,368.2c0.1,0.1,0.2,0.4,0.1,0.5c-0.1,0.2-0.3,0.3-0.4,0.2l-2.8-1.4c-0.1-0.1-0.1-0.3-0.1-0.5c0.1-0.3,0.4-0.4,0.5-0.3
		L330.8,368.2z M333.1,362.3c0.2,0.1,0.2,0.3,0.2,0.5c-0.1,0.2-0.3,0.4-0.4,0.3l-2.9-0.9c-0.2-0.1-0.3-0.3-0.2-0.5
		c0.1-0.2,0.3-0.3,0.4-0.3L333.1,362.3z M334.5,356.2c0.1,0,0.3,0.2,0.2,0.4c-0.1,0.3-0.2,0.4-0.4,0.4l-3.1-0.4
		c-0.2,0-0.3-0.2-0.2-0.4c0-0.2,0.2-0.4,0.4-0.3L334.5,356.2z M334.8,350c0.1-0.1,0.3,0.1,0.3,0.4c0,0.3-0.1,0.4-0.3,0.4l-3.1,0.1
		c-0.2,0-0.4-0.2-0.4-0.4c0-0.2,0.1-0.3,0.3-0.3L334.8,350z M334,343.7c0.1-0.1,0.3,0.1,0.3,0.4c0.1,0.2-0.1,0.4-0.2,0.4l-3.1,0.7
		c-0.1,0.1-0.4-0.1-0.4-0.4c-0.1-0.2,0.1-0.4,0.3-0.5L334,343.7z M332.1,337.7c0.1-0.1,0.4,0.1,0.4,0.3c0.1,0.2,0,0.5-0.1,0.5
		l-2.9,1.1c-0.1,0.1-0.4-0.1-0.4-0.3c-0.1-0.2,0-0.4,0.1-0.5L332.1,337.7z M329.3,332.1c0.1-0.1,0.4,0,0.5,0.2
		c0.1,0.2,0.1,0.4-0.1,0.5l-2.6,1.6c-0.1,0.1-0.4,0-0.5-0.2c-0.1-0.2-0.1-0.4,0.1-0.5L329.3,332.1z M325.5,327
		c0.1-0.1,0.4-0.1,0.5,0.1c0.2,0.2,0.2,0.4,0.1,0.5l-2.3,2c-0.1,0.1-0.4,0.1-0.5-0.1c-0.1-0.2-0.2-0.4-0.1-0.5L325.5,327z
		 M320.9,322.7c0.1-0.1,0.4-0.1,0.5,0.1c0.1,0.1,0.3,0.4,0.1,0.5l-1.9,2.4c-0.1,0.1-0.4,0.1-0.5-0.1c-0.2-0.1-0.3-0.4-0.1-0.5
		L320.9,322.7z M315.7,319.2c0.1-0.1,0.4-0.2,0.5-0.1c0.2,0.1,0.3,0.3,0.2,0.4l-1.5,2.7c-0.1,0.1-0.3,0.1-0.5,0.1
		c-0.2-0.1-0.3-0.4-0.2-0.5L315.7,319.2z M310,316.6c0.1-0.1,0.3-0.2,0.5-0.1c0.2,0.1,0.3,0.3,0.3,0.4l-1,2.9
		c-0.1,0.1-0.3,0.2-0.5,0.1c-0.2-0.1-0.3-0.3-0.3-0.4L310,316.6z M303.8,315.1c0.1-0.1,0.2-0.3,0.5-0.3c0.2,0.1,0.3,0.3,0.3,0.4
		l-0.5,3.1c-0.1,0.1-0.3,0.2-0.5,0.2c-0.3-0.1-0.4-0.2-0.4-0.4L303.8,315.1z M318.3,339.9c-0.4-0.2-0.9-0.4-1.4-0.4
		c-1.8,0-3.3,1.5-3.3,3.3c0,0.9,0.3,1.7,0.9,2.2c-1.6,1.7-3.6,3.6-5.8,5.4c-1.1-0.9-2.2-1.8-3.3-2.7c-0.1-2.3-0.3-4.7-0.5-6.8
		c5-2.6,9.4-4.1,12.1-4.1c0.7,0,1.5,0.1,1.8,0.6C319,337.8,318.9,338.6,318.3,339.9L318.3,339.9z M305.3,350
		c0.7,0.5,1.3,1.1,1.9,1.6c-0.7,0.5-1.2,1-1.9,1.5c0.1-0.5,0.1-1.1,0.1-1.7C305.3,351,305.3,350.5,305.3,350L305.3,350z
		 M314.8,359.1c3.4,4,4,6.3,3.4,7.1c-0.3,0.4-1.1,0.5-1.7,0.5c-2.5,0-6.9-1.7-11.8-4.3c0.2-2.2,0.3-4.6,0.5-7.1
		c1.1-0.9,2.2-1.7,3.3-2.5C311,354.9,313.2,357.1,314.8,359.1L314.8,359.1z M303.5,354.4c-0.8,0.6-1.6,1.1-2.4,1.7
		c-1.1,0.7-2.2,1.4-3.3,2.2c-1.1-0.7-2.2-1.4-3.2-2.2c-0.7-0.6-1.5-1.1-2.2-1.7c-0.1-0.9-0.1-1.9-0.1-2.8c0-1,0-1.9,0.1-2.9
		c0.8-0.6,1.6-1.2,2.4-1.7c1.1-0.7,2.2-1.4,3.3-2.1c1.1,0.7,2.2,1.4,3.2,2.2c0.8,0.6,1.6,1.1,2.3,1.7c0,0.9,0.1,1.9,0.1,2.8
		C303.6,352.4,303.5,353.4,303.5,354.4L303.5,354.4z M303.1,361.4c-1.1-0.7-2.4-1.4-3.6-2.2c0.9-0.6,1.8-1.1,2.7-1.7
		c0.5-0.4,0.9-0.7,1.4-0.9C303.4,358.3,303.3,359.9,303.1,361.4L303.1,361.4z M301.7,369.6c-1.3,5.1-2.8,6.9-3.7,6.9
		c-0.7,0-1.7-1-2.7-3.6c0.9-0.6,1.6-1.6,1.6-2.7c0-1.8-1.4-3.3-3.2-3.4c-0.2-1.1-0.4-2.5-0.6-3.7c1.6-0.9,3.2-1.8,4.7-2.8
		c1.7,1.2,3.4,2.2,5,3.1C302.6,365.6,302.2,367.7,301.7,369.6L301.7,369.6z M292.6,356.5c0.4,0.3,0.8,0.6,1.1,0.9
		c0.9,0.7,1.7,1.2,2.6,1.8c-1.1,0.7-2.3,1.3-3.4,1.9C292.7,359.6,292.6,358.1,292.6,356.5L292.6,356.5z M292.9,341.5
		c1.2,0.7,2.4,1.4,3.7,2.2c-0.9,0.6-1.8,1.1-2.7,1.8c-0.4,0.3-0.9,0.7-1.3,0.9C292.6,344.7,292.7,343,292.9,341.5L292.9,341.5z
		 M294.2,333.4c1.3-5.2,2.8-6.9,3.7-6.9c0.9,0,2.5,1.8,3.7,6.9c0.5,1.9,0.9,4.1,1.2,6.6c-1.6,0.9-3.2,1.7-4.8,2.7
		c-1.7-1.1-3.4-2.2-5-3.1C293.5,337.4,293.8,335.3,294.2,333.4L294.2,333.4z M303.5,346.5c-0.3-0.3-0.8-0.6-1.1-0.9
		c-0.9-0.7-1.7-1.3-2.6-1.9c1.1-0.7,2.3-1.3,3.4-1.9C303.3,343.2,303.4,344.8,303.5,346.5L303.5,346.5z M290.8,347.6
		c-1.2,0.8-2.2,1.7-3.3,2.5c-2.5-2.2-4.6-4.3-6.3-6.3c-3.4-4-4-6.4-3.4-7.1c0.4-0.4,1.1-0.5,1.7-0.5c0.3,0,0.7,0.1,1.1,0.1
		c0.1,1.8,1.6,3.2,3.3,3.2c1.1,0,2-0.5,2.6-1.3c1.5,0.7,3.1,1.4,4.8,2.4C291.1,342.8,290.9,345.2,290.8,347.6L290.8,347.6z
		 M290.7,352.9c-0.7-0.5-1.3-1.1-1.9-1.6c0.7-0.5,1.3-1,1.9-1.5c0,0.5,0,1.1,0,1.7C290.7,352,290.7,352.4,290.7,352.9L290.7,352.9z
		 M279.2,366.1c-0.7,0-1.5-0.1-1.9-0.6c-0.5-0.7,0.1-3,3.7-7c1.8-1.9,4-4,6.5-6.1c1.1,0.9,2.2,1.8,3.3,2.7c0.1,2.4,0.2,4.7,0.5,6.9
		C286.2,364.6,281.8,366.1,279.2,366.1L279.2,366.1z M320,336.4c-0.6-0.9-1.7-1.3-3.2-1.3c-2.9,0-7.3,1.4-12.3,4
		c-0.3-2.2-0.7-4.3-1.1-6.1c-1.4-5.4-3.2-8.2-5.3-8.2c-2.2,0-4,2.8-5.4,8.2c-0.4,1.8-0.8,3.7-1.1,5.8c-1.5-0.8-2.9-1.5-4.4-2.1
		c0.1-0.1,0.1-0.3,0.1-0.4c0-1.9-1.5-3.4-3.3-3.4c-1.3,0-2.4,0.7-2.9,1.8c-0.5-0.1-1-0.1-1.5-0.1c-1.4,0-2.5,0.4-3,1.2
		c-1.3,1.8-0.1,4.9,3.5,9.2c1.7,2,3.9,4.2,6.3,6.3c-2.5,2.1-4.7,4.2-6.4,6.2c-3.7,4.2-5,7.3-3.8,9.1c0.7,0.9,1.7,1.3,3.2,1.3
		c2.8,0,7.3-1.4,12.3-4c0.1,1.2,0.4,2.2,0.5,3.3c-1.1,0.5-1.8,1.7-1.8,2.9c0,1.8,1.5,3.3,3.3,3.3c0.1,0,0.1,0,0.1,0
		c1.2,3.2,2.6,4.7,4.3,4.7c2.2,0,4-2.7,5.3-8.2c0.4-1.7,0.9-3.7,1.1-5.8c5,2.7,9.4,4.3,12.1,4.3c1.4,0,2.5-0.4,3.1-1.2
		c1.2-1.8,0.1-4.9-3.5-9.2c-1.7-2-3.8-4.2-6.2-6.3c2.2-1.9,4.3-3.8,5.9-5.6c0.3,0.1,0.7,0.1,1,0.1c1.8,0,3.3-1.5,3.3-3.3
		c0-0.7-0.2-1.3-0.5-1.8C320.7,339.1,320.8,337.6,320,336.4L320,336.4z"/>
	<path class="st2" d="M161.7,563.2c0,0.7-0.1,1.2-0.3,1.8c-0.2,0.5-0.5,0.9-0.9,1.2c-0.4,0.3-0.8,0.6-1.4,0.7
		c-0.5,0.2-1,0.2-1.6,0.2h-4.7c-1,0-1.8-0.1-2.6-0.3s-1.4-0.6-2-1.1c-0.6-0.5-1.2-1.2-1.8-2.1c-0.6-0.9-1.2-2-1.9-3.5l-13.5-25.5
		c-0.8-1.5-1.6-3.2-2.4-4.9c-0.8-1.7-1.5-3.5-2.2-5.1h-0.1c0.1,2,0.2,4,0.3,6s0.1,4.1,0.1,6.2v28.5c0,0.3-0.1,0.5-0.2,0.8
		c-0.2,0.2-0.4,0.4-0.8,0.6c-0.4,0.2-0.9,0.3-1.6,0.4c-0.6,0.1-1.5,0.1-2.5,0.1s-1.8,0-2.5-0.1c-0.7-0.1-1.2-0.2-1.5-0.4
		c-0.4-0.1-0.7-0.3-0.8-0.6c-0.1-0.2-0.2-0.5-0.2-0.8v-49c0-1.3,0.4-2.3,1.2-3c0.8-0.7,1.7-1,2.9-1h5.9c1.1,0,2,0.1,2.7,0.3
		c0.7,0.2,1.4,0.5,2,0.9c0.6,0.4,1.1,1,1.6,1.8c0.5,0.7,1,1.7,1.6,2.8l10.6,19.9c0.6,1.2,1.2,2.4,1.8,3.6c0.6,1.2,1.2,2.3,1.7,3.5
		c0.6,1.2,1.1,2.3,1.6,3.4c0.5,1.2,1.1,2.3,1.6,3.4h0.1c-0.1-2-0.2-4-0.2-6.2c-0.1-2.2-0.1-4.2-0.1-6.2v-25.6c0-0.3,0.1-0.5,0.3-0.8
		c0.1-0.2,0.5-0.4,0.8-0.6c0.4-0.2,0.9-0.3,1.6-0.4c0.6-0.1,1.5-0.1,2.5-0.1c1,0,1.8,0,2.4,0.1c0.6,0.1,1.1,0.2,1.5,0.4
		c0.3,0.2,0.6,0.4,0.7,0.6c0.1,0.2,0.2,0.5,0.2,0.8V563.2z M184.7,565.6c0,0.3-0.1,0.5-0.3,0.8c-0.2,0.2-0.5,0.4-0.9,0.5
		c-0.4,0.1-1,0.3-1.7,0.3c-0.7,0.1-1.6,0.1-2.7,0.1c-1,0-2,0-2.7-0.1c-0.7-0.1-1.3-0.2-1.7-0.3c-0.4-0.1-0.7-0.3-0.9-0.5
		c-0.2-0.2-0.3-0.5-0.3-0.8v-51.5c0-0.3,0.1-0.5,0.3-0.8c0.2-0.2,0.5-0.4,0.9-0.5c0.5-0.1,1-0.3,1.7-0.3s1.6-0.1,2.7-0.1
		c1.1,0,2,0,2.7,0.1c0.7,0.1,1.3,0.2,1.7,0.3c0.4,0.1,0.7,0.3,0.9,0.5c0.2,0.2,0.3,0.5,0.3,0.8V565.6z M228.9,562.8
		c0,0.8,0,1.5-0.1,2c-0.1,0.5-0.2,1-0.3,1.3s-0.3,0.6-0.5,0.7c-0.2,0.2-0.5,0.2-0.7,0.2h-27.4c-0.9,0-1.7-0.3-2.3-0.8
		c-0.6-0.5-1-1.4-1-2.7v-47.5c0-1.2,0.3-2.1,1-2.7c0.6-0.6,1.4-0.8,2.3-0.8h27.2c0.3,0,0.5,0.1,0.7,0.2s0.4,0.4,0.5,0.7
		c0.1,0.4,0.2,0.8,0.3,1.4c0.1,0.6,0.1,1.2,0.1,2.1c0,0.8,0,1.4-0.1,2c-0.1,0.5-0.2,1-0.3,1.3c-0.1,0.3-0.3,0.6-0.5,0.7
		s-0.4,0.2-0.7,0.2h-19.4v13.3H224c0.3,0,0.5,0.1,0.7,0.2c0.2,0.2,0.4,0.4,0.5,0.7c0.1,0.3,0.3,0.8,0.3,1.3c0.1,0.6,0.1,1.2,0.1,2
		c0,0.8,0,1.5-0.1,2c-0.1,0.5-0.2,1-0.3,1.3c-0.1,0.3-0.3,0.6-0.5,0.7c-0.2,0.2-0.5,0.2-0.7,0.2h-16.4v15.4h19.6
		c0.3,0,0.5,0.1,0.7,0.2c0.2,0.2,0.4,0.4,0.5,0.7s0.3,0.8,0.3,1.3C228.8,561.3,228.9,561.9,228.9,562.8L228.9,562.8z M283.1,546.8
		c0,3.3-0.5,6.3-1.5,9c-1,2.6-2.4,4.8-4.3,6.7c-1.9,1.8-4.3,3.2-7.1,4.2c-2.8,1-6,1.4-9.7,1.4c-3.4,0-6.5-0.5-9.2-1.3
		c-2.7-0.9-5-2.2-6.9-3.9s-3.3-3.9-4.3-6.5c-1-2.6-1.5-5.6-1.5-9.1v-33.2c0-0.3,0.1-0.5,0.3-0.8c0.2-0.2,0.5-0.4,0.9-0.5
		c0.4-0.1,1-0.3,1.7-0.3c0.7-0.1,1.6-0.1,2.7-0.1c1,0,1.9,0,2.6,0.1c0.7,0.1,1.2,0.2,1.7,0.3c0.4,0.1,0.7,0.3,0.9,0.5
		c0.2,0.2,0.3,0.5,0.3,0.8v32.2c0,2.2,0.3,4.1,0.8,5.6c0.5,1.6,1.3,2.9,2.3,3.9c1,1,2.2,1.8,3.6,2.4c1.4,0.5,2.9,0.8,4.6,0.8
		c1.7,0,3.3-0.3,4.7-0.8s2.6-1.3,3.5-2.3c0.9-1,1.7-2.3,2.2-3.8c0.5-1.5,0.8-3.2,0.8-5.1v-32.9c0-0.3,0.1-0.5,0.3-0.8
		c0.2-0.2,0.5-0.4,0.9-0.5s1-0.3,1.7-0.3c0.7-0.1,1.6-0.1,2.7-0.1c1,0,1.9,0,2.6,0.1c0.7,0.1,1.2,0.2,1.6,0.3
		c0.4,0.1,0.7,0.3,0.9,0.5c0.2,0.2,0.3,0.5,0.3,0.8V546.8z M332.7,558.9c0,0.7,0,1.3-0.1,1.8c0,0.5-0.1,0.9-0.2,1.3
		c-0.1,0.3-0.2,0.7-0.3,0.9c-0.1,0.3-0.3,0.5-0.7,0.9c-0.3,0.3-0.9,0.7-1.8,1.2c-0.9,0.5-2,1-3.3,1.4c-1.3,0.5-2.7,0.9-4.4,1.1
		c-1.6,0.3-3.4,0.5-5.4,0.5c-3.7,0-7.1-0.6-10.1-1.7c-3-1.2-5.6-2.9-7.7-5.2c-2.1-2.3-3.7-5.1-4.8-8.6c-1.1-3.4-1.7-7.4-1.7-11.9
		c0-4.6,0.6-8.8,1.8-12.3c1.2-3.6,3-6.6,5.2-9.1c2.2-2.4,4.9-4.3,8-5.6c3.1-1.2,6.5-1.9,10.3-1.9c1.5,0,2.9,0.1,4.4,0.4
		s2.7,0.6,3.9,1c1.2,0.4,2.2,0.9,3.2,1.4s1.6,1,2,1.4c0.4,0.4,0.6,0.7,0.8,1s0.3,0.6,0.3,1c0.1,0.4,0.1,0.9,0.2,1.4
		c0,0.5,0.1,1.2,0.1,2c0,0.8,0,1.5-0.1,2.1c-0.1,0.6-0.2,1.1-0.3,1.4c-0.1,0.4-0.3,0.7-0.5,0.8c-0.2,0.2-0.4,0.3-0.7,0.3
		c-0.4,0-0.9-0.2-1.6-0.7c-0.7-0.5-1.5-1-2.5-1.6c-1-0.6-2.2-1.2-3.7-1.6c-1.4-0.5-3.1-0.7-5-0.7c-2.2,0-4.1,0.5-5.8,1.3
		c-1.7,0.9-3.1,2.1-4.3,3.8s-2.1,3.6-2.7,6c-0.6,2.3-0.9,4.9-0.9,7.9c0,3.2,0.3,6,1,8.3c0.7,2.3,1.6,4.3,2.8,5.8
		c1.2,1.5,2.7,2.6,4.4,3.4c1.7,0.8,3.7,1.1,5.8,1.1c2,0,3.7-0.2,5.1-0.7c1.4-0.5,2.6-1,3.7-1.5c1-0.6,1.9-1.1,2.6-1.5
		c0.7-0.5,1.2-0.7,1.5-0.7c0.3,0,0.5,0.1,0.7,0.2c0.2,0.1,0.3,0.3,0.4,0.7c0.1,0.3,0.2,0.8,0.3,1.4
		C332.7,557,332.7,557.9,332.7,558.9L332.7,558.9z M389,539.2c0,4.5-0.5,8.6-1.7,12.1c-1.1,3.6-2.8,6.6-5,9.1
		c-2.2,2.5-5,4.4-8.2,5.7c-3.3,1.3-7.1,2-11.4,2c-4.2,0-7.9-0.6-11.1-1.7s-5.8-2.8-7.9-5.1c-2.1-2.3-3.7-5.2-4.7-8.7
		s-1.6-7.7-1.6-12.5c0-4.4,0.6-8.4,1.7-11.9c1.1-3.5,2.8-6.5,5-9c2.2-2.5,5-4.4,8.2-5.7c3.3-1.3,7.1-2,11.4-2
		c4.1,0,7.8,0.6,10.9,1.6c3.1,1.1,5.8,2.8,7.9,5.1c2.1,2.3,3.7,5.1,4.8,8.6C388.5,530.4,389,534.5,389,539.2L389,539.2z
		 M377.4,539.8c0-2.9-0.2-5.5-0.7-7.8c-0.5-2.4-1.2-4.4-2.3-6c-1.1-1.7-2.5-3-4.3-3.9s-4.1-1.4-6.7-1.4c-2.7,0-5,0.5-6.8,1.5
		c-1.8,1-3.3,2.4-4.5,4.1c-1.1,1.7-1.9,3.7-2.4,6c-0.5,2.3-0.7,4.7-0.7,7.3c0,3,0.2,5.7,0.7,8c0.5,2.4,1.2,4.4,2.3,6.1
		c1.1,1.7,2.5,3,4.3,3.9c1.8,0.9,4.1,1.3,6.8,1.3c2.7,0,5-0.5,6.8-1.5c1.8-1,3.3-2.4,4.5-4.1c1.1-1.8,1.9-3.8,2.4-6.1
		C377.2,544.9,377.4,542.4,377.4,539.8L377.4,539.8z M438.9,565.7c0,0.3-0.1,0.6-0.2,0.8c-0.1,0.2-0.4,0.4-0.8,0.5
		c-0.5,0.1-1,0.2-1.9,0.3s-1.9,0.1-3.3,0.1c-1.2,0-2.1,0-2.8-0.1c-0.7-0.1-1.3-0.1-1.7-0.3c-0.4-0.1-0.7-0.3-0.9-0.6
		c-0.1-0.2-0.3-0.5-0.4-0.9l-4.9-12.2c-0.6-1.4-1.2-2.6-1.7-3.7c-0.6-1.1-1.2-2-1.9-2.7c-0.7-0.7-1.5-1.3-2.4-1.6
		c-0.9-0.3-1.9-0.5-3.1-0.5h-3.5v20.8c0,0.3-0.1,0.5-0.3,0.7c-0.2,0.2-0.5,0.4-0.9,0.6c-0.4,0.1-1,0.3-1.7,0.3
		c-0.7,0.1-1.6,0.1-2.7,0.1c-1,0-1.9,0-2.7-0.1c-0.7-0.1-1.3-0.2-1.7-0.3c-0.4-0.1-0.7-0.3-0.9-0.5c-0.2-0.2-0.3-0.5-0.3-0.8v-49.5
		c0-1.2,0.3-2.1,1-2.7c0.6-0.6,1.4-0.8,2.3-0.8h14.1c1.4,0,2.6,0,3.5,0.1c0.9,0.1,1.8,0.1,2.5,0.2c2.2,0.3,4.2,0.9,5.9,1.6
		c1.7,0.7,3.2,1.7,4.5,2.9c1.2,1.2,2.2,2.7,2.8,4.3c0.7,1.7,1,3.6,1,5.8c0,1.8-0.2,3.5-0.7,5c-0.5,1.5-1.2,2.9-2.1,4
		c-0.9,1.2-2,2.2-3.3,3.1c-1.3,0.9-2.8,1.6-4.5,2.1c0.8,0.4,1.6,0.9,2.3,1.4c0.7,0.6,1.4,1.2,2,2.1c0.6,0.8,1.2,1.7,1.8,2.7
		c0.6,1,1.1,2.2,1.6,3.5l4.6,10.8c0.4,1.1,0.7,1.8,0.8,2.4C438.8,565,438.9,565.4,438.9,565.7L438.9,565.7z M424.5,528.7
		c0-1.8-0.4-3.3-1.2-4.5c-0.8-1.2-2.2-2.1-4-2.6c-0.6-0.1-1.2-0.2-1.9-0.3c-0.7-0.1-1.7-0.1-3-0.1h-5v15.4h5.6
		c1.6,0,2.9-0.2,4.1-0.6c1.2-0.4,2.2-0.9,2.9-1.6c0.8-0.7,1.4-1.5,1.8-2.5C424.3,530.9,424.5,529.8,424.5,528.7L424.5,528.7z
		 M479.2,562.8c0,0.8,0,1.5-0.1,2c-0.1,0.5-0.2,1-0.3,1.3c-0.1,0.3-0.3,0.6-0.5,0.7c-0.2,0.2-0.5,0.2-0.7,0.2h-27.4
		c-0.9,0-1.7-0.3-2.3-0.8c-0.6-0.5-0.9-1.4-0.9-2.7v-47.5c0-1.2,0.3-2.1,0.9-2.7c0.7-0.6,1.4-0.8,2.3-0.8h27.2
		c0.2,0,0.5,0.1,0.7,0.2s0.4,0.4,0.5,0.7c0.1,0.4,0.3,0.8,0.3,1.4c0.1,0.6,0.1,1.2,0.1,2.1c0,0.8,0,1.4-0.1,2
		c-0.1,0.5-0.2,1-0.3,1.3c-0.1,0.3-0.3,0.6-0.5,0.7s-0.4,0.2-0.7,0.2H458v13.3h16.4c0.3,0,0.5,0.1,0.7,0.2c0.2,0.2,0.4,0.4,0.5,0.7
		c0.1,0.3,0.2,0.8,0.3,1.3c0.1,0.6,0.1,1.2,0.1,2c0,0.8,0,1.5-0.1,2c-0.1,0.5-0.2,1-0.3,1.3c-0.1,0.3-0.3,0.6-0.5,0.7
		c-0.2,0.2-0.4,0.2-0.7,0.2H458v15.4h19.6c0.3,0,0.5,0.1,0.7,0.2c0.2,0.2,0.4,0.4,0.5,0.7c0.1,0.3,0.3,0.8,0.3,1.3
		C479.2,561.3,479.2,561.9,479.2,562.8L479.2,562.8z"/>
</g>
</svg>
